<?xml version="1.0" standalone="no"?>
<!DOCTYPE svg PUBLIC "-//W3C//DTD SVG 20010904//EN"
 "http://www.w3.org/TR/2001/REC-SVG-20010904/DTD/svg10.dtd">
<svg version="1.0" xmlns="http://www.w3.org/2000/svg"
 width="1920.000000pt" height="1080.000000pt" viewBox="0 0 1920.000000 1080.000000"
 preserveAspectRatio="xMidYMid meet">
<metadata>
Created by potrace 1.16, written by Peter Selinger 2001-2019
</metadata>
<g transform="translate(0.000000,1080.000000) scale(0.100000,-0.100000)"
fill="#000000" stroke="none">
<path d="M0 5400 l0 -5400 4358 0 4357 0 283 1608 c155 884 341 1940 412 2347
71 407 131 752 134 766 l5 26 -622 -2 -622 -3 620 9 c340 5 620 11 621 12 1 1
-54 268 -122 592 -68 325 -123 597 -121 605 1 7 58 -249 126 -570 68 -322 127
-591 130 -598 8 -13 388 474 1976 2528 368 476 785 1015 927 1197 141 183 253
333 247 333 -6 0 -8 3 -6 8 3 4 -267 106 -599 226 -332 121 -602 221 -600 223
2 2 277 -95 611 -217 335 -121 609 -219 610 -218 1 2 -47 248 -107 548 -59
300 -107 552 -105 560 1 8 51 -235 111 -540 60 -305 111 -557 113 -560 2 -2
12 1 21 8 9 7 26 16 38 21 11 5 198 121 415 257 476 298 446 280 434 267 -5
-6 -207 -135 -448 -287 -241 -152 -451 -289 -466 -304 -16 -15 -97 -117 -182
-227 -84 -110 -493 -639 -908 -1175 -1264 -1632 -2042 -2642 -2039 -2645 2 -2
129 77 283 174 594 376 4501 2845 4525 2860 14 8 21 10 15 4 -5 -6 -662 -424
-1460 -928 -797 -504 -1885 -1192 -2417 -1529 -531 -336 -963 -614 -960 -617
4 -4 104 -25 222 -48 118 -23 418 -82 665 -131 1442 -286 3517 -694 4015 -790
118 -23 800 -158 1515 -301 1122 -223 1596 -317 2950 -584 127 -25 233 -45
238 -45 4 0 7 200 7 445 l0 445 -587 513 c-323 281 -965 843 -1428 1247 -463
404 -1192 1041 -1620 1415 -429 374 -847 739 -929 811 -148 129 -151 131 -176
117 -23 -14 -23 -14 -6 0 10 9 15 20 11 26 -3 6 0 9 8 5 9 -3 88 85 226 251
116 140 214 255 217 255 3 0 -37 -51 -88 -112 -313 -377 -331 -401 -322 -413
5 -7 488 -431 1074 -942 586 -510 1364 -1189 1730 -1509 585 -510 1825 -1591
1872 -1632 17 -14 18 111 18 2606 l0 2621 -32 -10 c-18 -5 -40 -9 -48 -8 -8 1
5 6 30 13 l45 12 3 892 2 892 -1142 -2 -1142 -3 -787 -949 c-433 -522 -795
-956 -805 -965 -13 -11 -12 -8 2 9 12 14 340 410 729 880 390 470 739 892 777
937 37 45 68 84 68 87 0 3 -1021 6 -2269 6 l-2270 0 -4 -22 -4 -23 -2 23 -1
22 -2467 0 c-1358 0 -2461 -4 -2453 -9 8 -4 261 -97 562 -206 302 -109 546
-200 544 -202 -2 -2 -259 89 -571 202 -312 113 -570 204 -572 201 -2 -2 140
-284 315 -627 367 -717 474 -929 468 -929 -2 0 -183 350 -402 777 -219 427
-399 772 -400 767 -2 -5 -24 -227 -51 -494 -26 -267 -49 -476 -51 -465 -1 11
18 224 43 473 25 250 44 467 43 483 l-2 29 -3678 0 -3678 0 0 -5400z m7084
5028 c-147 -188 -528 -677 -847 -1085 -318 -409 -580 -743 -583 -743 -8 0 -4
7 17 31 11 13 393 502 847 1086 455 584 828 1060 830 1058 2 -2 -117 -158
-264 -347z m-2554 -3278 c-246 -311 -818 -1054 -815 -1059 2 -4 245 -114 540
-245 295 -131 534 -240 532 -242 -2 -2 -245 104 -540 235 -295 132 -537 234
-537 228 0 -7 14 -50 30 -97 17 -46 30 -89 29 -95 0 -13 -48 108 -63 165 l-13
44 -104 27 c-57 15 -97 27 -89 28 8 0 56 -10 106 -23 l90 -23 428 549 c235
301 429 548 432 548 3 0 -9 -18 -26 -40z m1974 -2304 l256 -114 1 26 c1 18 3
21 6 9 2 -9 9 -15 14 -12 5 3 6 -1 3 -9 -5 -14 64 -15 682 -10 379 4 687 5
684 2 -4 -4 -1044 -18 -1333 -18 -43 0 -48 -2 -42 -19 5 -15 1 -19 -14 -18
-15 1 -17 5 -10 18 5 10 6 20 2 22 -5 3 -116 53 -248 112 -132 59 -246 111
-255 116 -44 26 23 -2 254 -105z"/>
<path d="M9556 4713 c-3 -15 -80 -449 -170 -963 -457 -2596 -657 -3742 -653
-3746 2 -2 1393 -3 3090 -2 l3086 3 -282 250 c-155 137 -813 720 -1462 1295
-649 575 -1713 1517 -2365 2094 -652 577 -1197 1060 -1212 1073 l-26 25 -6
-29z"/>
<path d="M9591 4727 c13 -10 3937 -3487 4993 -4424 l341 -302 69 -1 70 0 2068
978 2068 977 -2 445 -3 445 -170 33 c-93 18 -384 75 -645 127 -1319 261 -2503
494 -3185 626 -181 35 -288 56 -375 75 -84 18 -2543 505 -4105 813 -1286 254
-1151 229 -1124 208z"/>
<path d="M17146 975 c-1121 -530 -2041 -966 -2044 -969 -3 -4 918 -6 2046 -6
l2052 0 0 970 c0 534 -3 970 -7 969 -5 0 -925 -434 -2047 -964z"/>
</g>
</svg>
