<svg version="1.1" id="Layer_1" xmlns="http://www.w3.org/2000/svg" xmlns:xlink="http://www.w3.org/1999/xlink" x="0px" y="0px"
	 width="100%" viewBox="0 0 232 130" enable-background="new 0 0 232 130" xml:space="preserve">
<path fill="#FEFEFE" opacity="1.000000" stroke="none" 
	d="
M131.000000,131.000000 
	C87.333344,131.000000 44.166687,131.000000 1.000023,131.000000 
	C1.000015,87.666687 1.000015,44.333374 1.000008,1.000046 
	C78.333290,1.000031 155.666580,1.000031 232.999908,1.000015 
	C232.999939,44.333282 232.999939,87.666565 232.999969,130.999924 
	C199.166672,131.000000 165.333328,131.000000 131.000000,131.000000 
M85.050430,58.277821 
	C84.418800,57.172394 83.787170,56.066967 83.279457,54.119106 
	C82.368111,37.585384 92.395897,38.286644 104.734901,42.376118 
	C100.391197,36.674740 93.429810,35.180466 87.833435,37.892399 
	C81.842789,40.795395 77.993172,46.768894 80.841515,56.775276 
	C81.653625,58.042229 82.465736,59.309181 83.636520,61.179115 
	C85.609756,62.339397 87.589111,64.474663 89.554977,64.462318 
	C94.007095,64.434349 98.698936,63.962860 102.758621,62.336826 
	C104.067909,61.812412 103.747536,57.123379 104.089577,54.329330 
	C104.217957,53.280598 104.110374,52.202969 104.110374,51.188667 
	C100.228416,51.188667 96.741096,51.188667 93.253777,51.188667 
	C94.396706,52.505020 95.682266,52.872677 96.988777,52.976330 
	C98.578651,53.102463 100.186165,53.006306 101.608070,53.006306 
	C102.846375,58.684937 101.164246,61.002254 95.669022,62.403347 
	C91.358017,63.502506 89.314392,60.911797 86.152580,59.399773 
	C86.011047,59.057800 85.755417,58.878719 85.050430,58.277821 
M114.038544,61.079029 
	C118.150246,65.221733 119.546936,65.560310 119.519562,65.257545 
	C118.052849,62.501053 116.586136,59.744568 114.882477,56.164402 
	C114.453133,49.831818 114.023796,43.499237 113.594452,37.166653 
	C113.171333,37.116936 112.748222,37.067219 112.325104,37.017502 
	C112.130928,39.059181 111.617996,41.130245 111.803017,43.136963 
	C112.334465,48.901260 113.148285,54.639526 114.038544,61.079029 
M150.805115,61.477497 
	C150.805115,61.477497 150.784622,61.540897 150.620789,62.259949 
	C151.410324,63.199234 152.199875,64.138519 152.989410,65.077805 
	C153.696121,64.471779 154.711533,64.006439 155.061752,63.237946 
	C158.512711,55.665581 161.897354,48.061745 165.169144,40.410538 
	C165.578201,39.453949 165.225021,38.171417 165.225021,36.226357 
	C163.828583,37.277893 163.256027,37.483967 163.092896,37.865238 
	C160.054123,44.966717 157.064056,52.089039 153.442535,59.751179 
	C152.854782,59.209496 152.267014,58.667812 151.685394,57.423580 
	C149.122116,51.326706 146.628601,45.198460 143.916901,39.168324 
	C143.530472,38.308987 142.086288,37.925308 141.131653,37.321487 
	C141.091599,38.362095 140.688889,39.564003 141.068665,40.417885 
	C144.213165,47.488098 147.502411,54.493935 150.805115,61.477497 
M65.976471,55.504776 
	C65.989250,51.843498 66.204781,48.169350 65.973419,44.523567 
	C65.462135,36.467056 62.595470,29.430107 55.224571,25.382412 
	C45.754772,20.182117 35.873474,20.439098 26.612173,25.722076 
	C18.213839,30.512789 14.877268,38.503212 15.079484,48.047619 
	C15.361431,61.355209 15.514132,74.666565 15.925929,87.970001 
	C16.189863,96.496597 20.381563,102.818626 27.853987,106.826004 
	C34.587559,110.437126 41.801376,110.968277 49.170147,109.317680 
	C60.341488,106.815300 65.619064,100.339943 65.761765,88.953255 
	C65.897316,78.137291 65.906639,67.319748 65.976471,55.504776 
M134.905380,53.098652 
	C134.638199,47.713806 135.467300,42.218845 133.251724,36.914581 
	C132.012314,40.677868 132.012589,44.449276 131.747986,48.202011 
	C131.506393,51.628441 131.907471,55.587456 130.302063,58.286903 
	C128.835587,60.752739 125.060074,61.845341 121.220642,64.208923 
	C123.597946,64.446854 125.400742,65.088150 126.942970,64.698395 
	C132.369522,63.326992 134.443726,59.200741 134.905380,53.098652 
M175.184280,44.601105 
	C175.184280,42.091705 175.184280,39.582310 175.184280,36.105164 
	C171.910995,39.154671 171.054276,49.380299 172.126846,61.841530 
	C172.223419,62.963287 173.041504,64.022934 173.524506,65.111427 
	C174.077774,64.996178 174.631027,64.880928 175.184280,64.765678 
	C175.184280,58.368549 175.184280,51.971416 175.184280,44.601105 
z"/>
<path fill="#29E875" opacity="1.000000" stroke="none" 
	d="
M65.973969,56.003838 
	C65.906639,67.319748 65.897316,78.137291 65.761765,88.953255 
	C65.619064,100.339943 60.341488,106.815300 49.170147,109.317680 
	C41.801376,110.968277 34.587559,110.437126 27.853987,106.826004 
	C20.381563,102.818626 16.189863,96.496597 15.925929,87.970001 
	C15.514132,74.666565 15.361431,61.355209 15.079484,48.047619 
	C14.877268,38.503212 18.213839,30.512789 26.612173,25.722076 
	C35.873474,20.439098 45.754772,20.182117 55.224571,25.382412 
	C62.595470,29.430107 65.462135,36.467056 65.973419,44.523567 
	C66.204781,48.169350 65.989250,51.843498 65.973969,56.003838 
M42.739689,75.808258 
	C45.390156,75.595436 48.078957,75.594711 50.682835,75.124107 
	C55.582325,74.238625 58.715096,70.799095 58.887520,65.837090 
	C59.095505,59.851891 59.275047,53.825195 58.821404,47.865593 
	C57.735256,33.596638 47.449619,26.226725 34.457481,30.058762 
	C25.153316,32.803032 20.184853,41.129025 21.973600,50.978859 
	C23.463009,59.180351 31.981493,65.524040 40.856884,64.488632 
	C42.625069,64.282349 44.143070,61.931538 45.776432,60.569603 
	C44.267693,59.083649 42.842472,57.493969 41.201290,56.172497 
	C40.682713,55.754940 39.583401,56.091396 38.755268,56.020039 
	C34.209999,55.628391 31.471270,53.303535 30.595800,48.709099 
	C29.726688,44.148018 31.418888,40.896965 35.334854,38.728809 
	C42.343452,34.848354 49.105785,38.977398 49.809063,47.802361 
	C50.204834,52.768608 49.878269,57.788593 50.018871,62.780380 
	C50.107944,65.942787 48.836777,66.786438 45.638138,67.217178 
	C40.640404,67.890198 35.280602,68.784424 30.988188,71.205429 
	C20.691763,77.012810 19.532141,92.011658 28.506010,98.685776 
	C34.483051,103.131073 41.285080,104.396957 48.316982,101.356712 
	C55.392906,98.297417 59.667767,92.631676 60.869720,85.123489 
	C61.152870,83.354752 59.417728,80.154175 57.800270,79.434456 
	C54.955917,78.168816 53.108631,80.352974 52.017017,83.260361 
	C50.932747,86.148193 49.720062,89.210640 47.747719,91.490646 
	C44.692245,95.022720 40.170921,95.475769 36.342819,93.296036 
	C34.124020,92.032623 31.973724,89.005470 31.604330,86.504448 
	C30.975653,82.247910 33.524815,78.911026 37.625053,77.172333 
	C38.981770,76.597015 40.460602,76.309677 42.739689,75.808258 
z"/>
<path fill="#221F1F" opacity="1.000000" stroke="none" 
	d="
M80.674171,56.118950 
	C77.993172,46.768894 81.842789,40.795395 87.833435,37.892399 
	C93.429810,35.180466 100.391197,36.674740 104.734901,42.376118 
	C92.395897,38.286644 82.368111,37.585384 82.897156,54.662735 
	C81.901299,55.510563 81.287735,55.814758 80.674171,56.118950 
z"/>
<path fill="#221F1F" opacity="1.000000" stroke="none" 
	d="
M154.063751,59.206978 
	C157.064056,52.089039 160.054123,44.966717 163.092896,37.865238 
	C163.256027,37.483967 163.828583,37.277893 165.225021,36.226357 
	C165.225021,38.171417 165.578201,39.453949 165.169144,40.410538 
	C161.897354,48.061745 158.512711,55.665581 155.061752,63.237946 
	C154.711533,64.006439 153.696121,64.471779 152.989410,65.077805 
	C152.199875,64.138519 151.410324,63.199234 151.032196,61.731682 
	C152.317001,60.537937 153.190369,59.872456 154.063751,59.206978 
z"/>
<path fill="#151212" opacity="1.000000" stroke="none" 
	d="
M86.284225,59.873169 
	C89.314392,60.911797 91.358017,63.502506 95.669022,62.403347 
	C101.164246,61.002254 102.846375,58.684937 101.608070,53.006306 
	C100.186165,53.006306 98.578651,53.102463 96.988777,52.976330 
	C95.682266,52.872677 94.396706,52.505020 93.253777,51.188667 
	C96.741096,51.188667 100.228416,51.188667 104.110374,51.188667 
	C104.110374,52.202969 104.217957,53.280598 104.089577,54.329330 
	C103.747536,57.123379 104.067909,61.812412 102.758621,62.336826 
	C98.698936,63.962860 94.007095,64.434349 89.554977,64.462318 
	C87.589111,64.474663 85.609756,62.339397 83.642334,60.740650 
	C83.648148,60.302185 83.997353,60.001816 84.378906,59.987759 
	C85.268387,59.940193 85.776306,59.906681 86.284225,59.873169 
z"/>
<path fill="#1E1C1C" opacity="1.000000" stroke="none" 
	d="
M134.903931,53.546959 
	C134.443726,59.200741 132.369522,63.326992 126.942970,64.698395 
	C125.400742,65.088150 123.597946,64.446854 121.220642,64.208923 
	C125.060074,61.845341 128.835587,60.752739 130.302063,58.286903 
	C131.907471,55.587456 131.506393,51.628441 131.747986,48.202011 
	C132.012589,44.449276 132.012314,40.677868 133.251724,36.914581 
	C135.467300,42.218845 134.638199,47.713806 134.903931,53.546959 
z"/>
<path fill="#1D1B1B" opacity="1.000000" stroke="none" 
	d="
M175.184280,45.087696 
	C175.184280,51.971416 175.184280,58.368549 175.184280,64.765678 
	C174.631027,64.880928 174.077774,64.996178 173.524506,65.111427 
	C173.041504,64.022934 172.223419,62.963287 172.126846,61.841530 
	C171.054276,49.380299 171.910995,39.154671 175.184280,36.105164 
	C175.184280,39.582310 175.184280,42.091705 175.184280,45.087696 
z"/>
<path fill="#221F1F" opacity="1.000000" stroke="none" 
	d="
M150.747879,61.519245 
	C147.502411,54.493935 144.213165,47.488098 141.068665,40.417885 
	C140.688889,39.564003 141.091599,38.362095 141.131653,37.321487 
	C142.086288,37.925308 143.530472,38.308987 143.916901,39.168324 
	C146.628601,45.198460 149.122116,51.326706 151.401611,58.611443 
	C150.994522,60.372620 150.871201,60.945934 150.747879,61.519245 
z"/>
<path fill="#140F0F" opacity="1.000000" stroke="none" 
	d="
M113.851143,60.388020 
	C113.148285,54.639526 112.334465,48.901260 111.803017,43.136963 
	C111.617996,41.130245 112.130928,39.059181 112.325104,37.017502 
	C112.748222,37.067219 113.171333,37.116936 113.594452,37.166653 
	C114.023796,43.499237 114.453133,49.831818 114.707367,56.814262 
	C114.305222,58.438751 114.078178,59.413387 113.851143,60.388020 
z"/>
<path fill="#1E1C1C" opacity="1.000000" stroke="none" 
	d="
M113.944839,60.733524 
	C114.078178,59.413387 114.305222,58.438751 114.825836,57.226097 
	C116.586136,59.744568 118.052849,62.501053 119.519562,65.257545 
	C119.546936,65.560310 118.150246,65.221733 113.944839,60.733524 
z"/>
<path fill="#151212" opacity="1.000000" stroke="none" 
	d="
M80.757843,56.447113 
	C81.287735,55.814758 81.901299,55.510563 82.835197,55.083954 
	C83.787170,56.066967 84.418800,57.172394 84.930740,58.684296 
	C84.539818,59.394451 84.268585,59.698132 83.997353,60.001816 
	C83.997353,60.001816 83.648148,60.302185 83.462997,60.439156 
	C82.465736,59.309181 81.653625,58.042229 80.757843,56.447113 
z"/>
<path fill="#262424" opacity="1.000000" stroke="none" 
	d="
M150.776489,61.498371 
	C150.871201,60.945934 150.994522,60.372620 151.398560,58.962719 
	C152.267014,58.667812 152.854782,59.209496 153.753143,59.479076 
	C153.190369,59.872456 152.317001,60.537937 151.114120,61.372154 
	C150.784622,61.540897 150.805115,61.477497 150.776489,61.498371 
z"/>
<path fill="#221F1F" opacity="1.000000" stroke="none" 
	d="
M84.378906,59.987759 
	C84.268585,59.698132 84.539818,59.394451 85.098358,58.976654 
	C85.755417,58.878719 86.011047,59.057800 86.218399,59.636475 
	C85.776306,59.906681 85.268387,59.940193 84.378906,59.987759 
z"/>
<path fill="#E8EFEC" opacity="1.000000" stroke="none" 
	d="
M42.311646,75.849457 
	C40.460602,76.309677 38.981770,76.597015 37.625053,77.172333 
	C33.524815,78.911026 30.975653,82.247910 31.604330,86.504448 
	C31.973724,89.005470 34.124020,92.032623 36.342819,93.296036 
	C40.170921,95.475769 44.692245,95.022720 47.747719,91.490646 
	C49.720062,89.210640 50.932747,86.148193 52.017017,83.260361 
	C53.108631,80.352974 54.955917,78.168816 57.800270,79.434456 
	C59.417728,80.154175 61.152870,83.354752 60.869720,85.123489 
	C59.667767,92.631676 55.392906,98.297417 48.316982,101.356712 
	C41.285080,104.396957 34.483051,103.131073 28.506010,98.685776 
	C19.532141,92.011658 20.691763,77.012810 30.988188,71.205429 
	C35.280602,68.784424 40.640404,67.890198 45.638138,67.217178 
	C48.836777,66.786438 50.107944,65.942787 50.018871,62.780380 
	C49.878269,57.788593 50.204834,52.768608 49.809063,47.802361 
	C49.105785,38.977398 42.343452,34.848354 35.334854,38.728809 
	C31.418888,40.896965 29.726688,44.148018 30.595800,48.709099 
	C31.471270,53.303535 34.209999,55.628391 38.755268,56.020039 
	C39.583401,56.091396 40.682713,55.754940 41.201290,56.172497 
	C42.842472,57.493969 44.267693,59.083649 45.776432,60.569603 
	C44.143070,61.931538 42.625069,64.282349 40.856884,64.488632 
	C31.981493,65.524040 23.463009,59.180351 21.973600,50.978859 
	C20.184853,41.129025 25.153316,32.803032 34.457481,30.058762 
	C47.449619,26.226725 57.735256,33.596638 58.821404,47.865593 
	C59.275047,53.825195 59.095505,59.851891 58.887520,65.837090 
	C58.715096,70.799095 55.582325,74.238625 50.682835,75.124107 
	C48.078957,75.594711 45.390156,75.595436 42.311646,75.849457 
z"/>
</svg>